<svg width="205" height="133" viewBox="0 0 205 133" fill="none" xmlns="http://www.w3.org/2000/svg">
<g clip-path="url(#clip0)">
<path d="M122 89.1201V95.4801" stroke="#48E33D" stroke-linecap="round" stroke-linejoin="round"/>
<path opacity="0.25" fill-rule="evenodd" clip-rule="evenodd" d="M118.59 92.7001H126.9L121.91 78.8701L117.98 89.7501" fill="#48E33D"/>
<path d="M127.96 90.8201V95.4801" stroke="#48E33D" stroke-linecap="round" stroke-linejoin="round"/>
<path opacity="0.25" fill-rule="evenodd" clip-rule="evenodd" d="M127.89 82.6001L125.57 89.0201L126.9 92.7001H124.25L124.23 92.7301H131.54L127.89 82.6001Z" fill="#48E33D"/>
<path opacity="0.25" d="M107.71 11.05H94.79V19.03H107.71V11.05Z" fill="#FFAC38"/>
<path opacity="0.5" d="M107.7 11.05H98.54V19.03H107.7V11.05Z" fill="#FFAC38"/>
<path opacity="0.25" d="M32.23 92.17C33.9863 92.17 35.41 90.6299 35.41 88.73C35.41 86.8302 33.9863 85.29 32.23 85.29C30.4738 85.29 29.05 86.8302 29.05 88.73C29.05 90.6299 30.4738 92.17 32.23 92.17Z" fill="#48E33D"/>
<path d="M32.24 89.02V95.33" stroke="#48E33D" stroke-linecap="round" stroke-linejoin="round"/>
<path opacity="0.25" d="M150.31 92.17C152.066 92.17 153.49 90.6299 153.49 88.73C153.49 86.8302 152.066 85.29 150.31 85.29C148.554 85.29 147.13 86.8302 147.13 88.73C147.13 90.6299 148.554 92.17 150.31 92.17Z" fill="#48E33D"/>
<path d="M150.32 89.02V95.33" stroke="#48E33D" stroke-linecap="round" stroke-linejoin="round"/>
<path opacity="0.25" d="M73.5599 92.17C75.3161 92.17 76.7399 90.6299 76.7399 88.73C76.7399 86.8302 75.3161 85.29 73.5599 85.29C71.8036 85.29 70.3799 86.8302 70.3799 88.73C70.3799 90.6299 71.8036 92.17 73.5599 92.17Z" fill="#48E33D"/>
<path d="M82.1099 89.02V95.33" stroke="#48E33D" stroke-linecap="round" stroke-linejoin="round"/>
<path opacity="0.25" fill-rule="evenodd" clip-rule="evenodd" d="M82.0201 78.8701L77.0801 92.5701H86.9701L82.0201 78.8701Z" fill="#48E33D"/>
<path d="M59.6099 89.02V95.33" stroke="#48E33D" stroke-linecap="round" stroke-linejoin="round"/>
<path opacity="0.25" fill-rule="evenodd" clip-rule="evenodd" d="M59.5201 78.8701L54.5801 92.5701H64.4701L59.5201 78.8701Z" fill="#48E33D"/>
<path d="M73.5703 89.02V95.33" stroke="#48E33D" stroke-linecap="round" stroke-linejoin="round"/>
<path opacity="0.25" d="M173.56 92.17C175.316 92.17 176.74 90.6299 176.74 88.73C176.74 86.8302 175.316 85.29 173.56 85.29C171.804 85.29 170.38 86.8302 170.38 88.73C170.38 90.6299 171.804 92.17 173.56 92.17Z" fill="#48E33D"/>
<path d="M182.11 89.02V95.33" stroke="#48E33D" stroke-linecap="round" stroke-linejoin="round"/>
<path opacity="0.25" fill-rule="evenodd" clip-rule="evenodd" d="M182.02 78.8701L177.08 92.5701H186.97L182.02 78.8701Z" fill="#48E33D"/>
<path d="M173.57 89.02V95.33" stroke="#48E33D" stroke-linecap="round" stroke-linejoin="round"/>
<path d="M107.71 11.05H94.79V19.03H107.71V11.05Z" stroke="#FFAC38" stroke-linecap="round" stroke-linejoin="round"/>
<path d="M98.54 19.03V11.05" stroke="#FFAC38" stroke-linecap="round" stroke-linejoin="round"/>
<path d="M85.4902 83.74L94.3402 26" stroke="#19B0DE" stroke-linecap="round" stroke-linejoin="round"/>
<path d="M111.9 51L108.07 26" stroke="#19B0DE" stroke-linecap="round" stroke-linejoin="round"/>
<path d="M118.79 95.9801L114.97 71.0701" stroke="#19B0DE" stroke-linecap="round" stroke-linejoin="round"/>
<path d="M110.04 19.04H92.8203V25.75H110.04V19.04Z" stroke="#19B0DE" stroke-linecap="round" stroke-linejoin="round"/>
<path d="M0.5 95.9801H203.71" stroke="#19B0DE" stroke-linecap="round" stroke-linejoin="round"/>
<path d="M123.14 132.44H146.1" stroke="#16B1E0" stroke-linecap="round" stroke-linejoin="round"/>
<path d="M112.34 132.44H119.23" stroke="#16B1E0" stroke-linecap="round" stroke-linejoin="round"/>
<path d="M135.39 120.24H170.98" stroke="#16B1E0" stroke-linecap="round" stroke-linejoin="round"/>
<path d="M175.58 120.24H181.32" stroke="#16B1E0" stroke-linecap="round" stroke-linejoin="round"/>
<path d="M22.7102 110.58H61.0702" stroke="#16B1E0" stroke-linecap="round" stroke-linejoin="round"/>
<path d="M61.4902 104.39H76.3202" stroke="#16B1E0" stroke-linecap="round" stroke-linejoin="round"/>
<path d="M56.4199 104.39H58.7099" stroke="#16B1E0" stroke-linecap="round" stroke-linejoin="round"/>
<path d="M85.3701 120.24H100.2" stroke="#16B1E0" stroke-linecap="round" stroke-linejoin="round"/>
<path d="M80.29 120.24H82.59" stroke="#16B1E0" stroke-linecap="round" stroke-linejoin="round"/>
<path d="M114.65 104.39H99.8203" stroke="#16B1E0" stroke-linecap="round" stroke-linejoin="round"/>
<path d="M119.72 104.39H117.43" stroke="#16B1E0" stroke-linecap="round" stroke-linejoin="round"/>
<path d="M94.79 19.15V25.75" stroke="#19B0DE" stroke-linecap="round" stroke-linejoin="round"/>
<path d="M96.9399 19.15V25.75" stroke="#19B0DE" stroke-linecap="round" stroke-linejoin="round"/>
<path d="M99.0898 19.15V25.75" stroke="#19B0DE" stroke-linecap="round" stroke-linejoin="round"/>
<path d="M101.25 19.15V25.75" stroke="#19B0DE" stroke-linecap="round" stroke-linejoin="round"/>
<path d="M103.4 19.15V25.75" stroke="#19B0DE" stroke-linecap="round" stroke-linejoin="round"/>
<path d="M105.55 19.15V25.75" stroke="#19B0DE" stroke-linecap="round" stroke-linejoin="round"/>
<path d="M107.71 19.15V25.75" stroke="#19B0DE" stroke-linecap="round" stroke-linejoin="round"/>
<path opacity="0.25" d="M149.8 27.1401H150C149.183 28.0211 148.729 29.1785 148.73 30.3801C148.755 31.1879 148.975 31.9777 149.372 32.6817C149.769 33.3858 150.331 33.9831 151.009 34.4225C151.687 34.8619 152.462 35.1304 153.267 35.2049C154.072 35.2793 154.883 35.1576 155.63 34.8501C155.321 35.9331 154.716 36.9083 153.883 37.6661C153.049 38.4238 152.021 38.9339 150.914 39.1389C149.806 39.3439 148.664 39.2358 147.614 38.8267C146.565 38.4175 145.651 37.7236 144.974 36.823C144.298 35.9225 143.887 34.851 143.786 33.7292C143.686 32.6075 143.901 31.48 144.406 30.4736C144.912 29.4673 145.689 28.6221 146.648 28.0331C147.608 27.4442 148.714 27.1349 149.84 27.1401H149.8Z" fill="#19B0DE"/>
<path d="M187.42 37.57C187.807 37.57 188.12 37.2566 188.12 36.87C188.12 36.4834 187.807 36.17 187.42 36.17C187.034 36.17 186.72 36.4834 186.72 36.87C186.72 37.2566 187.034 37.57 187.42 37.57Z" fill="#19B0DE"/>
<path d="M165.77 21.3401C166.157 21.3401 166.47 21.0267 166.47 20.6401C166.47 20.2535 166.157 19.9401 165.77 19.9401C165.384 19.9401 165.07 20.2535 165.07 20.6401C165.07 21.0267 165.384 21.3401 165.77 21.3401Z" fill="#19B0DE"/>
<path d="M196.54 25.94C196.926 25.94 197.24 25.6266 197.24 25.24C197.24 24.8534 196.926 24.54 196.54 24.54C196.153 24.54 195.84 24.8534 195.84 25.24C195.84 25.6266 196.153 25.94 196.54 25.94Z" fill="#19B0DE"/>
<path d="M126.78 27.44C127.167 27.44 127.48 27.1266 127.48 26.74C127.48 26.3534 127.167 26.04 126.78 26.04C126.393 26.04 126.08 26.3534 126.08 26.74C126.08 27.1266 126.393 27.44 126.78 27.44Z" fill="#19B0DE"/>
<path d="M177.84 1.58005C178.227 1.58005 178.54 1.26665 178.54 0.880054C178.54 0.493454 178.227 0.180054 177.84 0.180054C177.454 0.180054 177.14 0.493454 177.14 0.880054C177.14 1.26665 177.454 1.58005 177.84 1.58005Z" fill="#19B0DE"/>
<path d="M138.22 6.94004C138.607 6.94004 138.92 6.62664 138.92 6.24004C138.92 5.85344 138.607 5.54004 138.22 5.54004C137.833 5.54004 137.52 5.85344 137.52 6.24004C137.52 6.62664 137.833 6.94004 138.22 6.94004Z" fill="#19B0DE"/>
<g opacity="0.5">
<path opacity="0.5" d="M0.340088 10.5601L90.9501 13.2001V17.2001L0.370088 35.8101L0.340088 10.5601Z" fill="#FFAC38"/>
</g>
<path d="M101.15 0.5L105.95 5.72L110.75 10.93H101.15H91.5503L96.3503 5.72L101.15 0.5Z" fill="#FFAC38" stroke="#FFAC38" stroke-linecap="round" stroke-linejoin="round"/>
<path opacity="0.25" d="M83.0003 48.6401H82.7003C82.6176 47.5833 82.1694 46.5883 81.4327 45.8262C80.6959 45.0641 79.7167 44.5824 78.6633 44.4641C77.6099 44.3457 76.5482 44.598 75.6607 45.1777C74.7732 45.7573 74.1154 46.628 73.8003 47.6401H73.6303C72.7562 47.6251 71.9107 47.9515 71.2733 48.5498C70.6359 49.1481 70.2568 49.9712 70.2165 50.8445C70.1761 51.7178 70.4777 52.5724 71.0572 53.2269C71.6367 53.8814 72.4485 54.2843 73.3203 54.3501H73.6203H73.9203H82.7003H82.9903C83.7183 54.307 84.4023 53.9874 84.9025 53.4567C85.4027 52.926 85.6812 52.2243 85.6812 51.4951C85.6812 50.7658 85.4027 50.0641 84.9025 49.5334C84.4023 49.0027 83.7183 48.6832 82.9903 48.6401H83.0003Z" fill="#19B0DE"/>
<path d="M97.9399 37.9801H92.9399" stroke="#19B0DE" stroke-linecap="round" stroke-linejoin="round"/>
<path d="M110.84 44.89H105.84" stroke="#19B0DE" stroke-linecap="round" stroke-linejoin="round"/>
<path d="M95.7901 40.75H92.3101" stroke="#19B0DE" stroke-linecap="round" stroke-linejoin="round"/>
<path d="M105.6 51H102.12" stroke="#19B0DE" stroke-linecap="round" stroke-linejoin="round"/>
<path d="M92.1502 64.92H88.6802" stroke="#19B0DE" stroke-linecap="round" stroke-linejoin="round"/>
<path d="M95.6802 61.5701H92.2002" stroke="#19B0DE" stroke-linecap="round" stroke-linejoin="round"/>
<path d="M101.83 32.55H98.3599" stroke="#19B0DE" stroke-linecap="round" stroke-linejoin="round"/>
<path d="M91.7402 86.0901H96.7502" stroke="#19B0DE" stroke-linecap="round" stroke-linejoin="round"/>
<path d="M93.8999 83.3201H97.3699" stroke="#19B0DE" stroke-linecap="round" stroke-linejoin="round"/>
<path d="M107.83 76.88H111.31" stroke="#19B0DE" stroke-linecap="round" stroke-linejoin="round"/>
<path d="M113.91 89.13H117.39" stroke="#19B0DE" stroke-linecap="round" stroke-linejoin="round"/>
<path opacity="0.5" d="M153.92 65.62H153.7C153.644 64.8653 153.331 64.1527 152.813 63.6008C152.295 63.0489 151.604 62.6911 150.855 62.587C150.105 62.483 149.342 62.6389 148.694 63.0288C148.045 63.4188 147.55 64.0192 147.29 64.73C147.29 63.4199 146.77 62.1634 145.843 61.2369C144.917 60.3105 143.66 59.79 142.35 59.79C142.174 59.7801 141.997 59.7801 141.82 59.79C141.733 58.4695 141.314 57.1922 140.603 56.0758C139.893 54.9593 138.913 54.0396 137.754 53.4012C136.594 52.7628 135.293 52.4262 133.97 52.4225C132.646 52.4189 131.343 52.7481 130.18 53.38C130.039 51.5481 129.264 49.8227 127.988 48.5007C126.712 47.1787 125.015 46.3428 123.189 46.1367C121.364 45.9307 119.523 46.3675 117.985 47.372C116.446 48.3764 115.306 49.8857 114.76 51.64H114.45C112.903 51.6427 111.42 52.2591 110.327 53.3541C109.234 54.449 108.62 55.9329 108.62 57.48C108.615 57.5433 108.615 57.6068 108.62 57.67H108.34C106.96 57.6745 105.626 58.1668 104.574 59.0598C103.522 59.9528 102.819 61.189 102.59 62.55C101.896 62.5651 101.224 62.7982 100.669 63.2164C100.115 63.6346 99.7057 64.2166 99.5002 64.88H99.3802C98.7513 64.8776 98.1458 65.118 97.69 65.5512C97.2341 65.9843 96.963 66.5768 96.9334 67.2049C96.9037 67.833 97.1177 68.4484 97.5307 68.9226C97.9438 69.3968 98.5239 69.6932 99.1502 69.75H153.91C154.459 69.75 154.986 69.5319 155.374 69.1437C155.762 68.7555 155.98 68.229 155.98 67.68C155.98 67.131 155.762 66.6045 155.374 66.2163C154.986 65.8281 154.459 65.61 153.91 65.61L153.92 65.62Z" fill="#19B0DE"/>
</g>
<defs>
<clipPath id="clip0">
<rect width="204.21" height="132.94" fill="white"/>
</clipPath>
</defs>
</svg>
