<?xml version="1.0" encoding="iso-8859-1"?>
<!-- Generator: Adobe Illustrator 18.0.0, SVG Export Plug-In . SVG Version: 6.00 Build 0)  -->
<!DOCTYPE svg PUBLIC "-//W3C//DTD SVG 1.1//EN" "http://www.w3.org/Graphics/SVG/1.1/DTD/svg11.dtd">
<svg version="1.1" id="Capa_1" xmlns="http://www.w3.org/2000/svg" xmlns:xlink="http://www.w3.org/1999/xlink" x="0px" y="0px"
	 viewBox="0 0 59 59" style="enable-background:new 0 0 59 59;" xml:space="preserve">
<g>
	<rect x="1.5" y="5" style="fill:#E0C6A9;" width="56" height="14"/>
	<polyline style="fill:#FFECD7;" points="50.5,11 56.5,5 58.5,5 58.5,19 56.5,19 50.5,11 	"/>
	<polygon style="fill:#CCB297;" points="50.5,11 50.5,19 56.5,19 	"/>
	<polyline style="fill:#FFECD7;" points="8.5,11 2.5,5 0.5,5 0.5,19 2.5,19 8.5,11 	"/>
	<polygon style="fill:#CCB297;" points="8.5,11 8.5,19 2.5,19 	"/>
	<path style="fill:#F0D7B8;" d="M54.758,59H4.242C2.175,59,0.5,57.325,0.5,55.258V19h58v36.258C58.5,57.325,56.825,59,54.758,59z"/>
	<circle style="fill:#72543A;" cx="17.5" cy="27" r="3"/>
	<circle style="fill:#72543A;" cx="41.5" cy="27" r="3"/>
	<path style="fill:#CEB69E;" d="M29.5,46c-7.168,0-13-5.832-13-13v-6c0-0.553,0.447-1,1-1s1,0.447,1,1v6c0,6.065,4.935,11,11,11
		s11-4.935,11-11v-6c0-0.553,0.447-1,1-1s1,0.447,1,1v6C42.5,40.168,36.668,46,29.5,46z"/>
	<circle style="fill:#71C285;" cx="29.5" cy="8" r="8"/>
	<path style="fill:#FFFFFF;" d="M29.5,13.923c-0.553,0-1-0.447-1-1V3.077c0-0.553,0.447-1,1-1s1,0.447,1,1v9.846
		C30.5,13.476,30.053,13.923,29.5,13.923z"/>
	<path style="fill:#FFFFFF;" d="M29.5,13.923c-0.256,0-0.512-0.098-0.707-0.293c-0.391-0.391-0.391-1.023,0-1.414l4.308-4.308
		c0.391-0.391,1.023-0.391,1.414,0s0.391,1.023,0,1.414l-4.308,4.308C30.012,13.825,29.756,13.923,29.5,13.923z"/>
	<path style="fill:#FFFFFF;" d="M29.5,13.923c-0.256,0-0.512-0.098-0.707-0.293l-4.308-4.308c-0.391-0.391-0.391-1.023,0-1.414
		s1.023-0.391,1.414,0l4.308,4.308c0.391,0.391,0.391,1.023,0,1.414C30.012,13.825,29.756,13.923,29.5,13.923z"/>
</g>
<g>
</g>
<g>
</g>
<g>
</g>
<g>
</g>
<g>
</g>
<g>
</g>
<g>
</g>
<g>
</g>
<g>
</g>
<g>
</g>
<g>
</g>
<g>
</g>
<g>
</g>
<g>
</g>
<g>
</g>
</svg>
