<?xml version="1.0" encoding="iso-8859-1"?>
<!-- Generator: Adobe Illustrator 19.0.0, SVG Export Plug-In . SVG Version: 6.00 Build 0)  -->
<svg version="1.1" id="Layer_1" xmlns="http://www.w3.org/2000/svg" xmlns:xlink="http://www.w3.org/1999/xlink" x="0px" y="0px"
	 viewBox="0 0 512 512" style="enable-background:new 0 0 512 512;" xml:space="preserve">
<g>
	<rect x="44.213" y="50.917" style="fill:#FEE187;" width="48.454" height="447.234"/>
	<circle style="fill:#FEE187;" cx="305.982" cy="247.574" r="56.528"/>
</g>
<g>
	<path style="fill:#FFC61B;" d="M390.433,233.734h-15.451c-5.552-27.717-27.435-49.601-55.154-55.154v-15.45
		c0-7.645-6.199-13.844-13.844-13.844c-7.645,0-13.844,6.199-13.844,13.844v15.45c-27.717,5.551-49.601,27.435-55.154,55.154h-15.45
		c-7.645,0-13.844,6.199-13.844,13.844s6.199,13.844,13.844,13.844h15.45c5.551,27.717,27.435,49.601,55.154,55.154v15.451
		c0,7.645,6.199,13.844,13.844,13.844c7.645,0,13.844-6.199,13.844-13.844v-15.451c27.717-5.551,49.601-27.435,55.154-55.154h15.451
		c7.645,0,13.844-6.199,13.844-13.844S398.077,233.734,390.433,233.734z M305.984,290.263c-23.536,0-42.684-19.148-42.684-42.684
		s19.148-42.684,42.684-42.684s42.684,19.148,42.684,42.684S329.519,290.263,305.984,290.263z"/>
	<path style="fill:#FFC61B;" d="M467.787,107.094h-46.465V64.761h46.465c7.645,0,13.844-6.199,13.844-13.844
		s-6.199-13.844-13.844-13.844H92.669H58.057V13.844C58.057,6.199,51.858,0,44.213,0S30.369,6.199,30.369,13.844v37.073v11.381
		v435.857c0,7.645,6.199,13.844,13.844,13.844H92.67c7.645,0,13.844-6.199,13.844-13.844V64.761h84.132v42.333h-46.465
		c-7.645,0-13.844,6.199-13.844,13.844v253.282c0,7.645,6.199,13.844,13.844,13.844H352.9c7.645,0,13.844-6.199,13.844-13.844
		c0-7.645-6.199-13.844-13.844-13.844H158.024V134.782h76.267c7.645,0,13.844-6.199,13.844-13.844s-6.199-13.844-13.844-13.844
		h-15.958V64.761h175.3v42.333h-87.651c-7.645,0-13.844,6.199-13.844,13.844s6.199,13.844,13.844,13.844h147.959v225.594h-38.744
		c-7.645,0-13.844,6.199-13.844,13.844c0,7.645,6.199,13.844,13.844,13.844h52.588c7.645,0,13.844-6.199,13.844-13.844V120.938
		C481.631,113.293,475.431,107.094,467.787,107.094z M78.825,484.312H58.057V64.761h20.769v419.55H78.825z"/>
</g>
<g>
</g>
<g>
</g>
<g>
</g>
<g>
</g>
<g>
</g>
<g>
</g>
<g>
</g>
<g>
</g>
<g>
</g>
<g>
</g>
<g>
</g>
<g>
</g>
<g>
</g>
<g>
</g>
<g>
</g>
</svg>
